<svg width="15" height="20" viewBox="0 0 15 20" fill="none" xmlns="http://www.w3.org/2000/svg">
<path id="Phone-Icon" fill-rule="evenodd" clip-rule="evenodd" d="M0.394623 3.90784C0.124621 4.69708 0 5.50709 0 6.32748C0 7.09594 0.103867 7.84364 0.280407 8.59134C0.477716 9.46366 0.77887 10.3152 1.12156 11.1356C1.5058 12.0183 1.94196 12.8802 2.41965 13.711C2.98042 14.6871 3.59313 15.6218 4.30967 16.4941C4.86006 17.1587 5.45199 17.7818 6.12699 18.3218C6.60469 18.6956 7.09273 19.028 7.64312 19.298C8.41159 19.6822 9.21123 19.921 10.0628 19.9833C10.8832 20.0457 11.6828 19.9314 12.4616 19.6407C12.8251 19.5057 13.1678 19.3187 13.5105 19.111C13.739 18.976 13.9674 18.8514 14.1959 18.7268C14.3828 18.6229 14.5594 18.5087 14.7048 18.3426C14.954 18.0622 15.037 17.7403 14.9851 17.3768C14.9228 17.0133 14.7567 16.681 14.5698 16.3695C14.3205 15.9437 13.9986 15.5699 13.7078 15.1752C13.4897 14.8845 13.2716 14.6041 13.0224 14.3548C12.7628 14.0952 12.4824 13.8564 12.1501 13.6902C11.6932 13.4721 11.2258 13.4306 10.7585 13.6383C10.4885 13.7525 10.2393 13.9083 9.97968 14.0329C9.72006 14.1575 9.50198 14.3237 9.26313 14.4898C8.98274 14.6768 8.68162 14.791 8.32854 14.7598C8.03777 14.7287 7.77815 14.6145 7.5393 14.4587C7.20699 14.2406 6.93697 13.9706 6.67735 13.6695C6.23081 13.1502 5.85696 12.5687 5.51427 11.9664C5.18196 11.4056 4.88082 10.824 4.6212 10.2321C4.39274 9.69211 4.18505 9.14173 4.11236 8.5498C4.07082 8.22788 4.06042 7.90594 4.15388 7.5944C4.25772 7.22055 4.49659 6.96094 4.81851 6.7844C4.89121 6.74286 4.96387 6.70132 5.04695 6.67017C5.40003 6.54555 5.72198 6.34824 6.05429 6.16132C6.24122 6.05747 6.42815 5.95362 6.58392 5.81862C6.98893 5.48631 7.17583 5.05016 7.20698 4.53092C7.22775 4.10515 7.15506 3.70014 7.02006 3.29514C6.86429 2.80706 6.67737 2.33975 6.50083 1.85167C6.37621 1.50897 6.23082 1.18705 6.0439 0.875513C5.9089 0.64705 5.75309 0.439354 5.55579 0.273199C5.21309 -0.00718773 4.82889 -0.0694984 4.42389 0.0758873C4.22658 0.14858 4.05006 0.252429 3.86314 0.345892C3.58275 0.491277 3.30236 0.647048 3.01159 0.792434C2.48197 1.07282 2.02501 1.44666 1.62001 1.88282C1.24616 2.28782 0.944989 2.73437 0.695757 3.22245C0.57114 3.49245 0.488086 3.70015 0.394623 3.90784Z" fill="#0F6CCA"/>
</svg>
