<svg width="11" height="10" viewBox="0 0 11 10" fill="none" xmlns="http://www.w3.org/2000/svg">
<path id="Phone-Icon" fill-rule="evenodd" clip-rule="evenodd" d="M9.52263 6.60562C9.06918 6.3386 8.47145 6.0304 7.93556 6.24607C7.52333 6.41039 7.25538 7.05726 6.98743 7.3859C6.85346 7.55022 6.68857 7.58089 6.47215 7.49873C4.91601 6.88253 3.73087 5.85578 2.87551 4.42825C2.73123 4.20231 2.75183 4.03791 2.92703 3.83251C3.18467 3.5244 3.51445 3.18571 3.57628 2.77491C3.64842 2.36411 3.45264 1.89147 3.27744 1.52174C3.06103 1.05959 2.81367 0.39218 2.34991 0.125159C1.91708 -0.121322 1.35028 0.0221576 0.968969 0.330259C0.309412 0.864301 -0.0100641 1.70634 0.000241496 2.53822C0.000241496 2.77443 0.0311759 3.01108 0.0827038 3.24729C0.216676 3.79161 0.47432 4.31514 0.762877 4.79783C0.979294 5.16755 1.21632 5.52704 1.46365 5.86595C2.2881 6.98539 3.32896 7.97107 4.52441 8.70025C5.12213 9.0597 5.76109 9.38872 6.43095 9.60439C7.17295 9.85087 7.84281 10.1075 8.64665 9.95341C9.49171 9.79936 10.3264 9.27539 10.6562 8.46406C10.7593 8.22784 10.8005 7.96108 10.749 7.70433C10.6666 7.17029 9.95546 6.86237 9.52263 6.60562Z" fill="white"/>
</svg>
