<svg width="35" height="34" viewBox="0 0 35 34" fill="none" xmlns="http://www.w3.org/2000/svg">
<path id="Vector" d="M17.5732 0.5H17.5752C19.7996 0.493468 22.003 0.914508 24.0586 1.73828C26.1144 2.5622 27.9821 3.7723 29.5527 5.29883L29.5537 5.30078C31.1268 6.81368 32.3739 8.61494 33.2227 10.5986C34.0714 12.5822 34.5056 14.7093 34.5 16.8564V16.8574C34.4955 25.8559 26.9169 33.2061 17.5732 33.2061H17.5664C14.7387 33.207 11.9556 32.5225 9.4707 31.2148L9.30176 31.125L9.11523 31.1729L0.717773 33.3018L2.9541 25.4082L3.0127 25.2012L2.90234 25.0156C1.42037 22.5337 0.642367 19.7158 0.646484 16.8486L0.651367 16.4277C0.886784 7.62147 8.37487 0.500086 17.5732 0.5ZM17.5781 2.3457C9.329 2.3461 2.58823 8.83545 2.58789 16.8477C2.58485 19.5823 3.38201 22.2603 4.88379 24.5703L5.10449 24.9111L3.70312 29.8613L3.4668 30.6953L4.30762 30.4824L9.59277 29.1406L9.94629 29.3447H9.94727C12.2571 30.6669 14.8883 31.3631 17.5674 31.3623H17.5732C25.817 31.3623 32.5542 24.8722 32.5576 16.8594V16.8574C32.5498 12.997 30.9639 9.3002 28.1533 6.58008C25.3432 3.86045 21.5388 2.33886 17.5781 2.3457ZM11.4141 9.56641C11.6964 9.56648 11.9754 9.56869 12.2139 9.58008V9.58105C12.2638 9.58346 12.3143 9.58222 12.3457 9.58203C12.3819 9.58182 12.4053 9.58282 12.4268 9.58398C12.4652 9.58608 12.4799 9.59091 12.4883 9.59473C12.4961 9.59831 12.5592 9.62829 12.6533 9.78906L12.7588 10.002C12.9396 10.4226 13.247 11.1483 13.5244 11.7998C13.7943 12.4338 14.0507 13.0323 14.1162 13.1592C14.1562 13.2366 14.1716 13.2887 14.1758 13.3262C14.1789 13.3545 14.1773 13.388 14.1514 13.4385C13.9955 13.7413 13.9536 13.8502 13.7871 14.0381C13.5986 14.2508 13.4411 14.4463 13.2988 14.6035L13.1611 14.7471C13.0661 14.8384 12.8671 15.0215 12.7686 15.2783C12.6503 15.5866 12.6993 15.9105 12.8887 16.2246C13.1514 16.6605 14.0575 18.0924 15.4121 19.2607C17.1402 20.751 18.638 21.235 19.0234 21.4219C19.2721 21.5424 19.5477 21.6343 19.8369 21.6016C20.1485 21.5662 20.3802 21.3981 20.5576 21.1992C20.8017 20.9257 21.6634 19.9535 21.9756 19.499C22.0225 19.4308 22.0533 19.4064 22.0635 19.3994C22.0658 19.3978 22.0669 19.3967 22.0674 19.3965C22.0737 19.3958 22.0981 19.3948 22.1533 19.4072C22.2101 19.42 22.279 19.4423 22.376 19.4766C22.5453 19.5365 23.1514 19.8114 23.8047 20.1162C24.4428 20.414 25.0849 20.721 25.2998 20.8252H25.3008C25.5458 20.9433 25.6922 21.0056 25.8232 21.0752C25.8631 21.0964 25.8902 21.1142 25.9082 21.126C25.9092 21.1345 25.9112 21.1443 25.9121 21.1553C25.9189 21.2398 25.9183 21.3631 25.9043 21.5195C25.8763 21.8317 25.7954 22.2452 25.6299 22.6953C25.5096 23.0224 25.1084 23.4179 24.5439 23.7676C24.0625 24.0658 23.5593 24.2713 23.2217 24.3496L23.0879 24.375C22.3784 24.4777 21.5099 24.5162 20.5635 24.2256L20.5605 24.2246L19.9434 24.0303C19.3289 23.8285 18.7224 23.6036 18.126 23.3555H18.127C13.9063 21.5933 11.1322 17.4673 10.8926 17.1553C10.7884 17.0197 10.3655 16.4759 9.96875 15.7207C9.56798 14.9578 9.21784 14.0239 9.21777 13.1055C9.21777 11.25 10.2064 10.3583 10.6055 9.93652L10.6123 9.92871C10.7118 9.81925 10.8344 9.72974 10.9727 9.66699C11.1105 9.60445 11.2609 9.5705 11.4141 9.56641Z" fill="#0F6CCA" stroke="#0F6CCA"/>
</svg>
