<svg width="20" height="21" viewBox="0 0 20 21" fill="none" xmlns="http://www.w3.org/2000/svg">
<path id="Vector" fill-rule="evenodd" clip-rule="evenodd" d="M16.2676 3.0516C15.3874 2.08039 14.3417 1.31077 13.1906 0.787055C12.0396 0.26334 10.806 -0.004128 9.56089 4.81591e-05C4.33543 4.81591e-05 0.081608 4.66785 0.0794828 10.4063C0.0771712 12.2335 0.513916 14.0288 1.34526 15.6094L0 21L5.02612 19.553C6.41738 20.3842 7.97478 20.8192 9.55707 20.8186H9.56089C14.7859 20.8186 19.0393 16.1503 19.0419 10.4124C19.045 9.04388 18.8014 7.68837 18.3251 6.42469C17.8489 5.16102 17.1495 4.01441 16.2676 3.0516ZM9.56089 19.0622H9.55749C8.14694 19.0627 6.76204 18.6463 5.5468 17.8566L5.25904 17.6691L2.27652 18.5278L3.07263 15.3361L2.88519 15.008C2.09647 13.6309 1.6786 12.0351 1.68019 10.4063C1.68019 5.63769 5.21697 1.75786 9.56387 1.75786C11.6491 1.75375 13.6505 2.66326 15.1277 4.28635C16.605 5.90943 17.4371 8.11316 17.4412 10.4128C17.4395 15.1819 13.9044 19.0622 9.56089 19.0622ZM13.8831 12.5846C13.6464 12.4542 12.4805 11.8252 12.2646 11.7385C12.0487 11.6517 11.8893 11.6081 11.7316 11.8688C11.5739 12.1294 11.1195 12.7125 10.9814 12.8883C10.8432 13.0641 10.7051 13.0833 10.4684 12.953C10.2316 12.8227 9.46781 12.5485 8.5629 11.6625C7.8586 10.973 7.3834 10.1217 7.24527 9.86159C7.10713 9.60143 7.23039 9.46034 7.34898 9.33096C7.45566 9.21424 7.58572 9.02721 7.70431 8.87534C7.8229 8.72346 7.86243 8.61471 7.94106 8.44128C8.01969 8.26784 7.98059 8.11597 7.92151 7.98612C7.86243 7.85628 7.3885 6.57613 7.19129 6.05535C6.99874 5.54816 6.80365 5.61707 6.65828 5.6091C6.52014 5.6016 6.36075 5.59972 6.20391 5.59972C6.08401 5.60317 5.96604 5.63383 5.85737 5.6898C5.7487 5.74577 5.65166 5.82585 5.5723 5.92503C5.3551 6.18566 4.74304 6.81566 4.74304 8.0944C4.74304 9.37315 5.59313 10.6106 5.71044 10.7841C5.82775 10.9575 7.38085 13.5839 9.75726 14.7103C10.1985 14.9187 10.6494 15.1015 11.108 15.2578C11.6755 15.4556 12.1919 15.428 12.5999 15.361C13.0552 15.2864 14.0026 14.7319 14.1994 14.1244C14.3962 13.5169 14.3966 12.9966 14.3375 12.8883C14.2784 12.78 14.1203 12.7144 13.8831 12.5846Z" fill="white"/>
</svg>
