<svg width="22" height="21" viewBox="0 0 22 21" fill="none" xmlns="http://www.w3.org/2000/svg">
<g id="Insta">
<path id="Vector" d="M14.3596 2.84361C15.3763 2.84664 16.3504 3.25096 17.0693 3.96827C17.7882 4.68558 18.1934 5.65759 18.1965 6.67201V14.328C18.1934 15.3424 17.7882 16.3144 17.0693 17.0317C16.3504 17.749 15.3763 18.1534 14.3596 18.1564H6.68676C5.6701 18.1534 4.69595 17.749 3.97706 17.0317C3.25817 16.3144 2.85296 15.3424 2.84992 14.328V6.67201C2.85296 5.65759 3.25817 4.68558 3.97706 3.96827C4.69595 3.25096 5.6701 2.84664 6.68676 2.84361H14.3596ZM14.3596 1.3125H6.68676C3.73247 1.3125 1.31543 3.72422 1.31543 6.67201V14.328C1.31543 17.2758 3.73247 19.6875 6.68676 19.6875H14.3596C17.3139 19.6875 19.731 17.2758 19.731 14.328V6.67201C19.731 3.72422 17.3139 1.3125 14.3596 1.3125Z" fill="white"/>
<path id="Vector_2" d="M15.5103 6.672C15.2827 6.672 15.0602 6.60464 14.8709 6.47845C14.6816 6.35226 14.5341 6.1729 14.447 5.96305C14.3599 5.7532 14.3371 5.52229 14.3815 5.29951C14.4259 5.07674 14.5355 4.8721 14.6965 4.71149C14.8575 4.55088 15.0625 4.4415 15.2858 4.39719C15.5091 4.35288 15.7405 4.37562 15.9508 4.46254C16.1611 4.54946 16.3409 4.69666 16.4673 4.88552C16.5938 5.07438 16.6613 5.29642 16.6613 5.52356C16.6616 5.67447 16.6321 5.82395 16.5744 5.96343C16.5166 6.10291 16.4319 6.22964 16.3249 6.33635C16.218 6.44306 16.091 6.52764 15.9512 6.58524C15.8114 6.64284 15.6616 6.67232 15.5103 6.672Z" fill="white"/>
<path id="Vector_3" d="M10.5233 7.43736C11.1304 7.43736 11.7238 7.61698 12.2286 7.95351C12.7333 8.29004 13.1268 8.76836 13.3591 9.32798C13.5914 9.8876 13.6522 10.5034 13.5337 11.0975C13.4153 11.6916 13.123 12.2373 12.6937 12.6656C12.2644 13.0939 11.7175 13.3856 11.1221 13.5038C10.5267 13.622 9.90957 13.5613 9.34871 13.3295C8.78786 13.0977 8.30848 12.7052 7.97121 12.2015C7.63394 11.6979 7.45393 11.1057 7.45393 10.5C7.4548 9.688 7.77846 8.90952 8.35389 8.33535C8.92933 7.76118 9.70953 7.43823 10.5233 7.43736ZM10.5233 5.90625C9.61276 5.90625 8.72264 6.17567 7.96554 6.68044C7.20843 7.1852 6.61834 7.90265 6.26989 8.74205C5.92143 9.58145 5.83026 10.5051 6.0079 11.3962C6.18554 12.2873 6.62402 13.1058 7.26788 13.7483C7.91175 14.3907 8.73208 14.8282 9.62515 15.0055C10.5182 15.1827 11.4439 15.0918 12.2851 14.7441C13.1264 14.3964 13.8454 13.8076 14.3513 13.0522C14.8572 12.2967 15.1272 11.4086 15.1272 10.5C15.1272 9.28166 14.6422 8.11322 13.7788 7.25173C12.9154 6.39023 11.7443 5.90625 10.5233 5.90625Z" fill="white"/>
</g>
</svg>
