<svg width="28" height="27" viewBox="0 0 28 27" fill="none" xmlns="http://www.w3.org/2000/svg">
<path id="Vector" fill-rule="evenodd" clip-rule="evenodd" d="M23.9206 3.92349C22.6263 2.67478 21.0886 1.68528 19.3961 1.01193C17.7035 0.33858 15.8896 -0.00530743 14.0587 6.19188e-05C6.37499 6.19188e-05 0.12 6.00152 0.116875 13.3795C0.113476 15.7288 0.755683 18.037 1.97812 20.0692L0 27L7.39061 25.1395C9.43637 26.2082 11.7264 26.7675 14.0531 26.7668H14.0587C21.7418 26.7668 27.9962 20.7647 28 13.3873C28.0046 11.6278 27.6463 9.88504 26.946 8.26032C26.2457 6.63559 25.2173 5.16139 23.9206 3.92349ZM14.0587 24.5085H14.0537C11.9796 24.5091 9.94317 23.9739 8.15624 22.9584L7.73311 22.7174L3.34749 23.8215L4.51812 19.7179L4.24249 19.296C3.08274 17.5254 2.46828 15.4737 2.47062 13.3795C2.47062 7.24846 7.67124 2.2601 14.0631 2.2601C17.1293 2.25482 20.0722 3.42419 22.2444 5.51101C24.4166 7.59784 25.6402 10.4312 25.6462 13.3879C25.6437 19.5196 20.4456 24.5085 14.0587 24.5085ZM20.4143 16.1801C20.0662 16.0126 18.3518 15.2038 18.0343 15.0923C17.7168 14.9808 17.4825 14.9248 17.2506 15.2598C17.0187 15.5949 16.3506 16.3447 16.1475 16.5707C15.9443 16.7967 15.7412 16.8214 15.3931 16.6538C15.045 16.4863 13.9219 16.1337 12.5912 14.9947C11.5556 14.1081 10.8569 13.0137 10.6537 12.6792C10.4506 12.3447 10.6319 12.1633 10.8062 11.997C10.9631 11.8469 11.1544 11.6064 11.3287 11.4112C11.5031 11.2159 11.5612 11.0761 11.6769 10.8531C11.7925 10.6301 11.735 10.4348 11.6481 10.2679C11.5612 10.1009 10.8644 8.45502 10.5744 7.78544C10.2912 7.13335 10.0044 7.22194 9.79061 7.2117C9.58748 7.20205 9.35311 7.19964 9.12249 7.19964C8.94618 7.20407 8.77271 7.24349 8.61292 7.31546C8.45312 7.38742 8.31042 7.49038 8.19374 7.6179C7.87436 7.95299 6.97436 8.76299 6.97436 10.4071C6.97436 12.0512 8.22436 13.6423 8.39686 13.8653C8.56936 14.0882 10.8531 17.465 14.3475 18.9133C14.9963 19.1812 15.6593 19.4162 16.3337 19.6172C17.1681 19.8715 17.9275 19.836 18.5275 19.7498C19.1968 19.654 20.59 18.941 20.8793 18.1599C21.1687 17.3789 21.1693 16.7099 21.0825 16.5707C20.9956 16.4315 20.7631 16.3471 20.4143 16.1801Z" fill="white"/>
</svg>
