<svg width="48" height="44" viewBox="0 0 48 44" fill="none" xmlns="http://www.w3.org/2000/svg">
<g id="icon / tabler-icons / map-pin" clip-path="url(#clip0_219_142)">
<path id="Vector" d="M24 25.6666C27.3137 25.6666 30 23.2042 30 20.1666C30 17.1291 27.3137 14.6666 24 14.6666C20.6863 14.6666 18 17.1291 18 20.1666C18 23.2042 20.6863 25.6666 24 25.6666Z" stroke="#0F6CCA" stroke-width="2" stroke-linecap="round" stroke-linejoin="round"/>
<path id="Vector_2" d="M24 6.50049C26.9851 6.50049 29.8974 7.31199 32.3672 8.82471C34.8362 10.337 36.7468 12.4784 37.8711 14.9663C38.9946 17.4527 39.287 20.183 38.7158 22.8159C38.1443 25.4498 36.7306 27.8825 34.6387 29.8003L26.1523 37.5796C25.5952 38.0896 24.8226 38.3892 24.001 38.3892C23.2819 38.3892 22.6007 38.1594 22.0684 37.7603L21.8496 37.5796L13.3613 29.8003C11.2694 27.8825 9.85567 25.4498 9.28418 22.8159C8.71299 20.183 9.00542 17.4527 10.1289 14.9663C11.2532 12.4784 13.1638 10.337 15.6328 8.82471C18.1026 7.31199 21.0149 6.50049 24 6.50049Z" stroke="#0F6CCA" stroke-width="2" stroke-linecap="round" stroke-linejoin="round"/>
</g>
<defs>
<clipPath id="clip0_219_142">
<rect width="48" height="44" fill="white"/>
</clipPath>
</defs>
</svg>
