<svg width="25" height="21" viewBox="0 0 25 21" fill="none" xmlns="http://www.w3.org/2000/svg">
<path id="Vector" d="M18.5402 8.90333L11.6222 2.67305C11.3032 2.37557 11.1266 1.97714 11.1306 1.56358C11.1346 1.15002 11.3188 0.754419 11.6435 0.461977C11.9682 0.169535 12.4075 0.00365335 12.8667 5.96256e-05C13.3259 -0.0035341 13.7683 0.155448 14.0987 0.442763L24.0062 9.36548C24.1694 9.51162 24.299 9.68537 24.3873 9.87675C24.4757 10.0681 24.5212 10.2733 24.5212 10.4806C24.5212 10.6879 24.4757 10.8931 24.3873 11.0845C24.299 11.2759 24.1694 11.4496 24.0062 11.5958L14.0987 20.5185C13.9371 20.6691 13.7438 20.7893 13.5302 20.8719C13.3165 20.9546 13.0867 20.9981 12.8541 20.9999C12.6216 21.0018 12.3909 20.9619 12.1757 20.8825C11.9605 20.8032 11.7649 20.6861 11.6005 20.538C11.436 20.3899 11.306 20.2138 11.2179 20.02C11.1299 19.8261 11.0856 19.6184 11.0876 19.409C11.0896 19.1996 11.1379 18.9926 11.2297 18.8002C11.3215 18.6077 11.4549 18.4337 11.6222 18.2882L18.5402 12.0579H1.75139C1.28689 12.0579 0.841417 11.8917 0.512969 11.5959C0.18452 11.3001 0 10.8989 0 10.4806C0 10.0623 0.18452 9.66111 0.512969 9.36531C0.841417 9.06951 1.28689 8.90333 1.75139 8.90333H18.5402Z" fill="white"/>
</svg>
