<svg width="25" height="21" viewBox="0 0 25 21" fill="none" xmlns="http://www.w3.org/2000/svg">
<path id="Vector" d="M12.8745 1.00691C13.0446 1.00558 13.2005 1.04994 13.3248 1.12196L13.4379 1.20259L23.332 10.1133L23.3349 10.1153C23.3999 10.1735 23.4451 10.2375 23.4736 10.2992C23.5018 10.3604 23.5139 10.4223 23.5139 10.4811C23.5138 10.5398 23.5017 10.601 23.4736 10.662C23.4451 10.7238 23.3999 10.7878 23.3349 10.8459L23.332 10.8479L13.4251 19.7704L13.4182 19.7763L13.4123 19.7822C13.3482 19.8421 13.265 19.8946 13.1665 19.9327C13.068 19.9707 12.9587 19.9918 12.846 19.9927C12.7332 19.9935 12.623 19.9743 12.5234 19.9376C12.4242 19.901 12.3404 19.8492 12.2747 19.7901C12.209 19.731 12.1635 19.666 12.135 19.6033C12.1067 19.5409 12.0941 19.4784 12.0947 19.4184C12.0953 19.3585 12.1092 19.2959 12.139 19.2335C12.1689 19.1708 12.2154 19.1062 12.2825 19.0477L12.2894 19.0418L12.2963 19.0369L19.2139 12.8056L21.1628 11.0514H1.75128C1.52189 11.0514 1.32031 10.968 1.18686 10.8479C1.05704 10.731 1.00705 10.5962 1.00691 10.4811C1.00691 10.3659 1.05686 10.2304 1.18686 10.1133C1.32031 9.99321 1.52189 9.90983 1.75128 9.9098H21.1628L19.2139 8.15557L12.3081 1.93614H12.3091C12.2154 1.8487 12.1646 1.75263 12.1458 1.66179L12.138 1.5733C12.1391 1.45927 12.1886 1.32617 12.3169 1.21045C12.4488 1.09169 12.6478 1.00871 12.8745 1.00691Z" fill="white" stroke="white" stroke-width="2"/>
</svg>
