<svg width="11" height="9" viewBox="0 0 11 9" fill="none" xmlns="http://www.w3.org/2000/svg">
<path id="Email-Icon" d="M9.41354 0H1.58631C0.709657 0 0 0.707241 0 1.58087V7.03087C0 7.9045 0.709657 8.61174 1.58631 8.61174H9.41354C10.2902 8.61174 10.9999 7.9045 10.9999 7.03087V1.58087C10.9999 0.707241 10.2902 0 9.41354 0ZM9.41354 0.749046C9.47615 0.749046 9.5388 0.759466 9.60141 0.769867L6.30354 4.50342C6.10525 4.73222 5.81301 4.85737 5.49992 4.85737C5.19727 4.85737 4.90506 4.72182 4.69634 4.50342L1.39846 0.769867C1.46108 0.759466 1.52369 0.749046 1.58631 0.749046H9.41354ZM10.238 7.03087C10.238 7.48849 9.8623 7.85254 9.41354 7.85254H1.58631C1.12711 7.85254 0.761862 7.47809 0.761862 7.03087V1.58087C0.761862 1.46646 0.782732 1.36266 0.824477 1.26906L4.13277 5.01327C4.47717 5.40849 4.97811 5.62673 5.49992 5.62673C6.02174 5.62673 6.52268 5.39809 6.86707 5.01327L10.1754 1.26906C10.2171 1.36266 10.238 1.46646 10.238 1.58087V7.03087Z" fill="white"/>
</svg>
