<svg width="14" height="14" viewBox="0 0 14 14" fill="none" xmlns="http://www.w3.org/2000/svg">
<path id="Vector" d="M10.5853 5.64432L6.63554 1.69459C6.45339 1.506 6.3526 1.25342 6.35488 0.991242C6.35716 0.729063 6.46232 0.478268 6.64772 0.292873C6.83311 0.107478 7.08391 0.00231606 7.34609 3.78e-05C7.60826 -0.00224046 7.86085 0.0985469 8.04944 0.280692L13.706 5.9373C13.7992 6.02994 13.8732 6.1401 13.9236 6.26142C13.9741 6.38275 14.0001 6.51285 14.0001 6.64425C14.0001 6.77565 13.9741 6.90575 13.9236 7.02707C13.8732 7.1484 13.7992 7.25855 13.706 7.3512L8.04944 13.0078C7.9572 13.1033 7.84686 13.1795 7.72487 13.2319C7.60287 13.2843 7.47166 13.3119 7.33889 13.313C7.20612 13.3142 7.07445 13.2889 6.95156 13.2386C6.82867 13.1883 6.71703 13.1141 6.62314 13.0202C6.52926 12.9263 6.45501 12.8147 6.40473 12.6918C6.35445 12.5689 6.32915 12.4372 6.33031 12.3045C6.33146 12.1717 6.35905 12.0405 6.41145 11.9185C6.46386 11.7965 6.54003 11.6861 6.63554 11.5939L10.5853 7.64418H0.99993C0.734732 7.64418 0.480396 7.53883 0.292873 7.35131C0.10535 7.16378 0 6.90945 0 6.64425C0 6.37905 0.10535 6.12471 0.292873 5.93719C0.480396 5.74967 0.734732 5.64432 0.99993 5.64432H10.5853Z" fill="white"/>
</svg>
